<svg width="80" height="262" viewBox="0 0 80 262" style="font-family: sans-serif; font-size: 7px;" xmlns="http://www.w3.org/2000/svg" xmlns:xlink="http://www.w3.org/1999/xlink">
    <line x1="10" y1="20" x2="10" y2="260" stroke="black" stroke-width="1" />
    <line x1="30" y1="20" x2="30" y2="260" stroke="black" stroke-width="1" />
    <line x1="50" y1="20" x2="50" y2="260" stroke="black" stroke-width="1" />
    <line x1="70" y1="20" x2="70" y2="260" stroke="black" stroke-width="1" />
    <rect x="9" y="18" width="62" height="3" fill="black" />

<line x1="10" y1="20" x2="70" y2="20" stroke="black" stroke-width="1" />
<line x1="10" y1="40" x2="70" y2="40" stroke="black" stroke-width="1" />
<line x1="10" y1="60" x2="70" y2="60" stroke="black" stroke-width="1" />
<line x1="10" y1="80" x2="70" y2="80" stroke="black" stroke-width="1" />
<line x1="10" y1="100" x2="70" y2="100" stroke="black" stroke-width="1" />
<line x1="10" y1="120" x2="70" y2="120" stroke="black" stroke-width="1" />
<line x1="10" y1="140" x2="70" y2="140" stroke="black" stroke-width="1" />
<line x1="10" y1="160" x2="70" y2="160" stroke="black" stroke-width="1" />
<line x1="10" y1="180" x2="70" y2="180" stroke="black" stroke-width="1" />
<line x1="10" y1="200" x2="70" y2="200" stroke="black" stroke-width="1" />
<line x1="10" y1="220" x2="70" y2="220" stroke="black" stroke-width="1" />
<line x1="10" y1="240" x2="70" y2="240" stroke="black" stroke-width="1" />
<line x1="10" y1="260" x2="70" y2="260" stroke="black" stroke-width="1" />
<g>
  <circle cx="10" cy="10" r="7" fill="#888"></circle>
  <text x="10" y="10" text-anchor="middle" alignment-baseline="middle" fill="white" dy="0.3">G</text>
</g>
<g>
  <circle cx="10" cy="30" r="7" fill="black"></circle>
  <text x="10" y="30" text-anchor="middle" alignment-baseline="middle" fill="white" dy="0.3">G#</text>
</g>
<g>
  <circle cx="10" cy="50" r="7" fill="#888"></circle>
  <text x="10" y="50" text-anchor="middle" alignment-baseline="middle" fill="white" dy="0.3">A</text>
</g>
<g>
  <circle cx="10" cy="70" r="7" fill="black"></circle>
  <text x="10" y="70" text-anchor="middle" alignment-baseline="middle" fill="white" dy="0.3">A#</text>
</g>
<g>
  <circle cx="10" cy="90" r="7" fill="#888"></circle>
  <text x="10" y="90" text-anchor="middle" alignment-baseline="middle" fill="white" dy="0.3">B</text>
</g>
<g>
  <circle cx="10" cy="110" r="7" fill="#888"></circle>
  <text x="10" y="110" text-anchor="middle" alignment-baseline="middle" fill="white" dy="0.3">C</text>
</g>
<g>
  <circle cx="10" cy="130" r="7" fill="black"></circle>
  <text x="10" y="130" text-anchor="middle" alignment-baseline="middle" fill="white" dy="0.3">C#</text>
</g>
<g>
  <circle cx="10" cy="150" r="7" fill="#888"></circle>
  <text x="10" y="150" text-anchor="middle" alignment-baseline="middle" fill="white" dy="0.3">D</text>
</g>
<g>
  <circle cx="10" cy="170" r="7" fill="black"></circle>
  <text x="10" y="170" text-anchor="middle" alignment-baseline="middle" fill="white" dy="0.3">D#</text>
</g>
<g>
  <circle cx="10" cy="190" r="7" fill="#888"></circle>
  <text x="10" y="190" text-anchor="middle" alignment-baseline="middle" fill="white" dy="0.3">E</text>
</g>
<g>
  <circle cx="10" cy="210" r="7" fill="#888"></circle>
  <text x="10" y="210" text-anchor="middle" alignment-baseline="middle" fill="white" dy="0.3">F</text>
</g>
<g>
  <circle cx="10" cy="230" r="7" fill="black"></circle>
  <text x="10" y="230" text-anchor="middle" alignment-baseline="middle" fill="white" dy="0.3">F#</text>
</g>
<g>
  <circle cx="10" cy="250" r="7" fill="#888"></circle>
  <text x="10" y="250" text-anchor="middle" alignment-baseline="middle" fill="white" dy="0.3">G</text>
</g>
<g>
  <circle cx="30" cy="10" r="7" fill="#888"></circle>
  <text x="30" y="10" text-anchor="middle" alignment-baseline="middle" fill="white" dy="0.3">D</text>
</g>
<g>
  <circle cx="30" cy="30" r="7" fill="black"></circle>
  <text x="30" y="30" text-anchor="middle" alignment-baseline="middle" fill="white" dy="0.3">D#</text>
</g>
<g>
  <circle cx="30" cy="50" r="7" fill="#888"></circle>
  <text x="30" y="50" text-anchor="middle" alignment-baseline="middle" fill="white" dy="0.3">E</text>
</g>
<g>
  <circle cx="30" cy="70" r="7" fill="#888"></circle>
  <text x="30" y="70" text-anchor="middle" alignment-baseline="middle" fill="white" dy="0.3">F</text>
</g>
<g>
  <circle cx="30" cy="90" r="7" fill="black"></circle>
  <text x="30" y="90" text-anchor="middle" alignment-baseline="middle" fill="white" dy="0.3">F#</text>
</g>
<g>
  <circle cx="30" cy="110" r="7" fill="#888"></circle>
  <text x="30" y="110" text-anchor="middle" alignment-baseline="middle" fill="white" dy="0.3">G</text>
</g>
<g>
  <circle cx="30" cy="130" r="7" fill="black"></circle>
  <text x="30" y="130" text-anchor="middle" alignment-baseline="middle" fill="white" dy="0.3">G#</text>
</g>
<g>
  <circle cx="30" cy="150" r="7" fill="#888"></circle>
  <text x="30" y="150" text-anchor="middle" alignment-baseline="middle" fill="white" dy="0.3">A</text>
</g>
<g>
  <circle cx="30" cy="170" r="7" fill="black"></circle>
  <text x="30" y="170" text-anchor="middle" alignment-baseline="middle" fill="white" dy="0.3">A#</text>
</g>
<g>
  <circle cx="30" cy="190" r="7" fill="#888"></circle>
  <text x="30" y="190" text-anchor="middle" alignment-baseline="middle" fill="white" dy="0.3">B</text>
</g>
<g>
  <circle cx="30" cy="210" r="7" fill="#888"></circle>
  <text x="30" y="210" text-anchor="middle" alignment-baseline="middle" fill="white" dy="0.3">C</text>
</g>
<g>
  <circle cx="30" cy="230" r="7" fill="black"></circle>
  <text x="30" y="230" text-anchor="middle" alignment-baseline="middle" fill="white" dy="0.3">C#</text>
</g>
<g>
  <circle cx="30" cy="250" r="7" fill="#888"></circle>
  <text x="30" y="250" text-anchor="middle" alignment-baseline="middle" fill="white" dy="0.3">D</text>
</g>
<g>
  <circle cx="50" cy="10" r="7" fill="#888"></circle>
  <text x="50" y="10" text-anchor="middle" alignment-baseline="middle" fill="white" dy="0.3">A</text>
</g>
<g>
  <circle cx="50" cy="30" r="7" fill="black"></circle>
  <text x="50" y="30" text-anchor="middle" alignment-baseline="middle" fill="white" dy="0.3">A#</text>
</g>
<g>
  <circle cx="50" cy="50" r="7" fill="#888"></circle>
  <text x="50" y="50" text-anchor="middle" alignment-baseline="middle" fill="white" dy="0.3">B</text>
</g>
<g>
  <circle cx="50" cy="70" r="7" fill="#888"></circle>
  <text x="50" y="70" text-anchor="middle" alignment-baseline="middle" fill="white" dy="0.3">C</text>
</g>
<g>
  <circle cx="50" cy="90" r="7" fill="black"></circle>
  <text x="50" y="90" text-anchor="middle" alignment-baseline="middle" fill="white" dy="0.3">C#</text>
</g>
<g>
  <circle cx="50" cy="110" r="7" fill="#888"></circle>
  <text x="50" y="110" text-anchor="middle" alignment-baseline="middle" fill="white" dy="0.3">D</text>
</g>
<g>
  <circle cx="50" cy="130" r="7" fill="black"></circle>
  <text x="50" y="130" text-anchor="middle" alignment-baseline="middle" fill="white" dy="0.3">D#</text>
</g>
<g>
  <circle cx="50" cy="150" r="7" fill="#888"></circle>
  <text x="50" y="150" text-anchor="middle" alignment-baseline="middle" fill="white" dy="0.3">E</text>
</g>
<g>
  <circle cx="50" cy="170" r="7" fill="#888"></circle>
  <text x="50" y="170" text-anchor="middle" alignment-baseline="middle" fill="white" dy="0.3">F</text>
</g>
<g>
  <circle cx="50" cy="190" r="7" fill="black"></circle>
  <text x="50" y="190" text-anchor="middle" alignment-baseline="middle" fill="white" dy="0.3">F#</text>
</g>
<g>
  <circle cx="50" cy="210" r="7" fill="#888"></circle>
  <text x="50" y="210" text-anchor="middle" alignment-baseline="middle" fill="white" dy="0.3">G</text>
</g>
<g>
  <circle cx="50" cy="230" r="7" fill="black"></circle>
  <text x="50" y="230" text-anchor="middle" alignment-baseline="middle" fill="white" dy="0.3">G#</text>
</g>
<g>
  <circle cx="50" cy="250" r="7" fill="#888"></circle>
  <text x="50" y="250" text-anchor="middle" alignment-baseline="middle" fill="white" dy="0.3">A</text>
</g>
<g>
  <circle cx="70" cy="10" r="7" fill="#888"></circle>
  <text x="70" y="10" text-anchor="middle" alignment-baseline="middle" fill="white" dy="0.3">E</text>
</g>
<g>
  <circle cx="70" cy="30" r="7" fill="#888"></circle>
  <text x="70" y="30" text-anchor="middle" alignment-baseline="middle" fill="white" dy="0.3">F</text>
</g>
<g>
  <circle cx="70" cy="50" r="7" fill="black"></circle>
  <text x="70" y="50" text-anchor="middle" alignment-baseline="middle" fill="white" dy="0.3">F#</text>
</g>
<g>
  <circle cx="70" cy="70" r="7" fill="#888"></circle>
  <text x="70" y="70" text-anchor="middle" alignment-baseline="middle" fill="white" dy="0.3">G</text>
</g>
<g>
  <circle cx="70" cy="90" r="7" fill="black"></circle>
  <text x="70" y="90" text-anchor="middle" alignment-baseline="middle" fill="white" dy="0.3">G#</text>
</g>
<g>
  <circle cx="70" cy="110" r="7" fill="#888"></circle>
  <text x="70" y="110" text-anchor="middle" alignment-baseline="middle" fill="white" dy="0.3">A</text>
</g>
<g>
  <circle cx="70" cy="130" r="7" fill="black"></circle>
  <text x="70" y="130" text-anchor="middle" alignment-baseline="middle" fill="white" dy="0.3">A#</text>
</g>
<g>
  <circle cx="70" cy="150" r="7" fill="#888"></circle>
  <text x="70" y="150" text-anchor="middle" alignment-baseline="middle" fill="white" dy="0.3">B</text>
</g>
<g>
  <circle cx="70" cy="170" r="7" fill="#888"></circle>
  <text x="70" y="170" text-anchor="middle" alignment-baseline="middle" fill="white" dy="0.3">C</text>
</g>
<g>
  <circle cx="70" cy="190" r="7" fill="black"></circle>
  <text x="70" y="190" text-anchor="middle" alignment-baseline="middle" fill="white" dy="0.3">C#</text>
</g>
<g>
  <circle cx="70" cy="210" r="7" fill="#888"></circle>
  <text x="70" y="210" text-anchor="middle" alignment-baseline="middle" fill="white" dy="0.3">D</text>
</g>
<g>
  <circle cx="70" cy="230" r="7" fill="black"></circle>
  <text x="70" y="230" text-anchor="middle" alignment-baseline="middle" fill="white" dy="0.3">D#</text>
</g>
<g>
  <circle cx="70" cy="250" r="7" fill="#888"></circle>
  <text x="70" y="250" text-anchor="middle" alignment-baseline="middle" fill="white" dy="0.3">E</text>
</g>
</svg>
